<svg width="307" height="271" viewBox="0 0 307 271" fill="none" xmlns="http://www.w3.org/2000/svg">
<path opacity="0.5" d="M271.448 35.2783C264.616 28.4428 256.504 23.0203 247.575 19.3208C238.647 15.6212 229.077 13.717 219.412 13.717C209.747 13.717 200.177 15.6212 191.249 19.3208C182.32 23.0203 174.208 28.4428 167.376 35.2783L153.196 49.4578L139.017 35.2783C125.216 21.4774 106.498 13.7242 86.9805 13.7242C67.4631 13.7242 48.7451 21.4774 34.9442 35.2783C21.1434 49.0792 13.3901 67.7972 13.3901 87.3145C13.3901 106.832 21.1434 125.55 34.9442 139.351L49.1238 153.53L153.196 257.603L257.269 153.53L271.448 139.351C278.284 132.518 283.706 124.406 287.406 115.478C291.105 106.549 293.009 96.9792 293.009 87.3145C293.009 77.6499 291.105 68.0799 287.406 59.1514C283.706 50.2228 278.284 42.1106 271.448 35.2783V35.2783Z" stroke="#EC88AC" stroke-width="26.7538" stroke-linecap="round" stroke-linejoin="round"/>
</svg>
