<svg width="32" height="32" viewBox="0 0 32 32" fill="none" xmlns="http://www.w3.org/2000/svg">
<circle cx="11.1919" cy="23.9336" r="6.06687" fill="#EC88AC"/>
<path fill-rule="evenodd" clip-rule="evenodd" d="M5 4C4.44772 4 4 4.44772 4 5C4 5.55228 4.44772 6 5 6H8.18032L9.01195 10.1551C9.01638 10.1835 9.02201 10.2116 9.02879 10.2392L10.6992 18.5848L10.6993 18.5857C10.8366 19.2759 11.2122 19.8959 11.7605 20.3373C12.3062 20.7766 12.9884 21.011 13.6886 21H23.3914C24.0916 21.011 24.7738 20.7766 25.3195 20.3373C25.868 19.8958 26.2437 19.2754 26.3808 18.5848L26.3809 18.5848L26.3823 18.5773L27.9823 10.1873C28.0381 9.89458 27.9605 9.59218 27.7705 9.36256C27.5805 9.13293 27.298 9 27 9H10.8204L9.98055 4.80374C9.88701 4.33639 9.47663 4 9 4H5ZM12.6606 18.1937L11.2207 11H25.7913L24.4185 18.1984C24.3723 18.4273 24.2474 18.6328 24.0654 18.7793C23.8826 18.9265 23.6538 19.0047 23.4192 19.0002L23.4 19H13.68L13.6608 19.0002C13.4262 19.0047 13.1974 18.9265 13.0146 18.7793C12.8318 18.6322 12.7066 18.4254 12.6608 18.1952L12.6606 18.1937ZM11 25C11 23.8954 11.8954 23 13 23C14.1046 23 15 23.8954 15 25C15 26.1046 14.1046 27 13 27C11.8954 27 11 26.1046 11 25ZM22 25C22 23.8954 22.8954 23 24 23C25.1046 23 26 23.8954 26 25C26 26.1046 25.1046 27 24 27C22.8954 27 22 26.1046 22 25Z" fill="#87338B"/>
</svg>
