<svg width="16" height="16" viewBox="0 0 16 16" fill="none" xmlns="http://www.w3.org/2000/svg">
<path fill-rule="evenodd" clip-rule="evenodd" d="M1.11711 13.5316C0.726588 13.9221 0.726588 14.5552 1.11711 14.9458C1.50764 15.3363 2.1408 15.3363 2.53133 14.9458L8.18823 9.28886L13.8451 14.9458C14.2357 15.3363 14.8688 15.3363 15.2594 14.9458C15.6499 14.5552 15.6499 13.9221 15.2594 13.5316L9.60245 7.87465L15.2592 2.21785C15.6498 1.82732 15.6498 1.19416 15.2592 0.803635C14.8687 0.413111 14.2356 0.413111 13.845 0.803635L8.18823 6.46044L2.53143 0.803635C2.14091 0.413111 1.50774 0.413111 1.11722 0.803635C0.726693 1.19416 0.726694 1.82732 1.11722 2.21785L6.77402 7.87465L1.11711 13.5316Z" fill="#F2F2F2"/>
</svg>
