<svg width="77" height="79" viewBox="0 0 77 79" fill="none" xmlns="http://www.w3.org/2000/svg">
<g opacity="0.5">
<path d="M30.7032 45.5334L24.3983 41.8246V28.8439L35.6483 35.3961V42.69C35.6483 43.4318 36.1428 43.9263 36.8845 43.9263C37.6263 43.9263 38.1208 43.4318 38.1208 42.69V36.756L43.8076 40.0939C44.0549 40.2175 44.1785 40.2175 44.4258 40.2175C44.7966 40.2175 45.2911 39.9702 45.5384 39.5994C45.9093 38.9812 45.662 38.2395 45.0439 37.8686L39.3571 34.6543L44.4258 31.6873C45.0439 31.3164 45.1675 30.5746 44.9203 29.9565C44.5494 29.3384 43.8076 29.2147 43.1895 29.462L36.8845 33.1708L25.6345 26.6186L36.8845 20.0664L43.1895 23.7752C43.4367 23.8988 43.5604 23.8988 43.8076 23.8988C44.1785 23.8988 44.673 23.6515 44.9203 23.2807C45.2911 22.6625 45.0439 21.9208 44.4258 21.5499L39.3571 18.5829L45.0439 15.2449C45.662 14.8741 45.7856 14.1323 45.5384 13.5142C45.1675 12.896 44.4258 12.7724 43.8076 13.0197L38.1208 16.3576V10.4235C38.1208 9.68175 37.6263 9.18724 36.8845 9.18724C36.1428 9.18724 35.6483 9.68175 35.6483 10.4235V17.7175L24.3983 24.2697V11.5361L30.7032 7.82735C31.3213 7.45647 31.445 6.71471 31.1977 6.09658C30.8268 5.47845 30.0851 5.35482 29.4669 5.60207L24.3983 8.69274V2.0169C24.3983 1.27515 23.9037 0.78064 23.162 0.78064C22.4202 0.78064 21.9257 1.27515 21.9257 2.0169V8.69274L16.857 5.7257C16.2389 5.35482 15.4971 5.60207 15.1263 6.22021C14.7554 6.83834 15.0026 7.5801 15.6208 7.95098L21.9257 11.6598V24.7642L10.6757 18.212V10.918C10.6757 10.1763 10.1812 9.68175 9.43944 9.68175C8.69768 9.68175 8.20318 10.1763 8.20318 10.918V16.8521L2.51636 13.5142C1.89822 13.1433 1.15646 13.3905 0.785585 14.0087C0.414705 14.6268 0.661958 15.3686 1.28009 15.7395L6.96691 19.0774L1.89822 22.0444C1.28009 22.4153 1.15646 23.157 1.40372 23.7752C1.65097 24.1461 2.02185 24.3933 2.51636 24.3933C2.76361 24.3933 2.88724 24.3933 3.13449 24.2697L9.43944 20.5609L20.6895 27.1131L9.43944 33.6653L3.13449 29.9565C2.51636 29.5856 1.7746 29.8329 1.40372 30.451C1.03284 31.0691 1.28009 31.8109 1.89822 32.1818L6.96691 35.1488L1.28009 38.4867C0.661958 38.8576 0.538332 39.5994 0.785585 40.2175C1.03284 40.5884 1.40372 40.8356 1.89822 40.8356C2.14548 40.8356 2.2691 40.8356 2.51636 40.712L8.20318 37.3741V43.3082C8.20318 44.0499 8.69768 44.5444 9.43944 44.5444C10.1812 44.5444 10.6757 44.0499 10.6757 43.3082V36.0142L21.9257 29.462V42.5664L15.6208 46.2752C15.0026 46.6461 14.879 47.3878 15.1263 48.006C15.3735 48.3769 15.7444 48.6241 16.2389 48.6241C16.4862 48.6241 16.6098 48.6241 16.857 48.5005L21.9257 45.5334V52.2093C21.9257 52.951 22.4202 53.4455 23.162 53.4455C23.9037 53.4455 24.3983 52.951 24.3983 52.2093V45.5334L29.4669 48.5005C29.7142 48.6241 29.8378 48.6241 30.0851 48.6241C30.456 48.6241 30.9505 48.3769 31.1977 48.006C31.5686 46.6461 31.3213 45.9043 30.7032 45.5334Z" fill="#56CCF2"/>
<path d="M55.0577 70.8768L47.7638 66.6734L55.0577 62.4701C55.6758 62.0993 55.7995 61.3575 55.5522 60.7394C55.1813 60.1212 54.4396 59.9976 53.8214 60.2449L46.5275 64.4482V56.0416C46.5275 55.2998 46.033 54.8053 45.2912 54.8053C44.5495 54.8053 44.055 55.2998 44.055 56.0416V64.4482L36.761 60.2449C36.1429 59.874 35.4011 60.1212 35.0302 60.7394C34.6593 61.3575 34.9066 62.0993 35.5247 62.4701L42.8187 66.6734L35.5247 70.8768C34.9066 71.2476 34.783 71.9894 35.0302 72.6075C35.2775 72.9784 35.6483 73.2256 36.1429 73.2256C36.3901 73.2256 36.5137 73.2257 36.761 73.102L44.055 68.8987V77.3053C44.055 78.0471 44.5495 78.5416 45.2912 78.5416C46.033 78.5416 46.5275 78.0471 46.5275 77.3053V68.8987L53.8214 73.102C54.0687 73.2257 54.1923 73.2256 54.4396 73.2256C54.8105 73.2256 55.305 72.9784 55.5522 72.6075C55.9231 71.9894 55.6758 71.2476 55.0577 70.8768Z" fill="#56CCF2"/>
<path d="M76.0738 43.0607L68.7799 38.8574L76.0738 34.6541C76.692 34.2832 76.8156 33.5415 76.5683 32.9233C76.1975 32.3052 75.4557 32.1816 74.8376 32.4288L67.5436 36.6321V28.2255C67.5436 27.4838 67.0491 26.9893 66.3073 26.9893C65.5656 26.9893 65.0711 27.4838 65.0711 28.2255V36.6321L57.7771 32.4288C57.159 32.0579 56.4172 32.3052 56.0463 32.9233C55.6754 33.5415 55.9227 34.2832 56.5408 34.6541L63.8348 38.8574L56.5408 43.0607C55.9227 43.4316 55.7991 44.1733 56.0463 44.7915C56.2936 45.1624 56.6645 45.4096 57.159 45.4096C57.4062 45.4096 57.5298 45.4096 57.7771 45.286L65.0711 41.0827V49.4893C65.0711 50.231 65.5656 50.7256 66.3073 50.7256C67.0491 50.7256 67.5436 50.231 67.5436 49.4893V41.0827L74.8376 45.286C75.0848 45.4096 75.2084 45.4096 75.4557 45.4096C75.8266 45.4096 76.3211 45.1624 76.5683 44.7915C76.8156 44.1733 76.692 43.4316 76.0738 43.0607Z" fill="#56CCF2"/>
</g>
</svg>
